<svg width="20" height="20" viewBox="0 0 20 20" fill="none" xmlns="http://www.w3.org/2000/svg">
<path d="M15.6245 20H4.37687C2.351 20 0.702209 18.3512 0.702209 16.3266V3.67466C0.702209 1.64879 2.351 0 4.37687 0H15.6245C17.6504 0 19.2979 1.64879 19.2979 3.67466V16.3266C19.2979 18.3525 17.6504 20 15.6245 20ZM4.37687 1.6969C3.28592 1.6969 2.39911 2.58501 2.39911 3.67466V16.3266C2.39911 17.4163 3.28722 18.3044 4.37687 18.3044H15.6245C16.7155 18.3044 17.6023 17.415 17.6023 16.3266V3.67466C17.6023 2.58371 16.7142 1.6969 15.6245 1.6969H4.37687Z" fill="#818181"/>
</svg>
